<?xml version="1.0" encoding="UTF-8"?>
<svg width="40" height="40" viewBox="0 0 40 40" fill="none" xmlns="http://www.w3.org/2000/svg">
  <path d="M20 5C14 5 10 9 10 15C10 21 14 25 20 25C26 25 30 21 30 15C30 9 26 5 20 5ZM17 12C18.1 12 19 12.9 19 14C19 15.1 18.1 16 17 16C15.9 16 15 15.1 15 14C15 12.9 15.9 12 17 12ZM23 12C24.1 12 25 12.9 25 14C25 15.1 24.1 16 23 16C21.9 16 21 15.1 21 14C21 12.9 21.9 12 23 12Z" fill="#333"/>
  <path d="M20 18C17.5 18 15.5 19.5 15.5 21.5C15.5 23.5 17.5 25 20 25C22.5 25 24.5 23.5 24.5 21.5C24.5 19.5 22.5 18 20 18Z" fill="#333"/>
</svg>
