<?xml version="1.0" encoding="UTF-8"?>
<svg width="40" height="40" viewBox="0 0 40 40" fill="none" xmlns="http://www.w3.org/2000/svg">
  <path d="M20 5C12.3 5 6 11.3 6 19C6 26.7 12.3 33 20 33C27.7 33 34 26.7 34 19C34 11.3 27.7 5 20 5ZM20 8C26 8 31 13 31 19C31 25 26 30 20 30C14 30 9 25 9 19C9 13 14 8 20 8Z" fill="#333"/>
  <path d="M20 12C16.1 12 13 15.1 13 19C13 22.9 16.1 26 20 26C23.9 26 27 22.9 27 19C27 15.1 23.9 12 20 12ZM20 15C22.2 15 24 16.8 24 19C24 21.2 22.2 23 20 23C17.8 23 16 21.2 16 19C16 16.8 17.8 15 20 15Z" fill="#333"/>
</svg>
